PathFileType	4	(X/Y/Z)	Patient4_TMGait_0pt5_02_right_04.trc.trc
DataRate	CameraRate	NumFrames	NumMarkers	Units	OrigDataRate	OrigDataStartFrame	OrigNumFrames
76.923076923077	76.923076923077	4	33	mm	76.923076923077	124	       141
Frame#	Time	Sacral			L.Shoulder			Chest			R.Shoulder			Neck			R.ASIS			L.ASIS			R.Thigh.Superior			R.Thigh.Lateral			R.Thigh.Inferior			R.Patella			L.Thigh.Superior			L.Thigh.Lateral			L.Thigh.Inferior			L.Patella			L.Shank.Superior			L.Shank.Lateral			L.Shank.Inferior			R.Shank.Superior			R.Shank.Lateral			R.Shank.Inferior			R.Heel			R.Midfoot.Superior			R.Midfoot.Lateral			R.Toe			L.Heel			L.Midfoot.Lateral			L.Midfoot.Superior			L.Toe			L.Elbow			L.Wrist			R.Elbow			R.Wrist			
		X1	Y1	Z1	X2	Y2	Z2	X3	Y3	Z3	X4	Y4	Z4	X5	Y5	Z5	X6	Y6	Z6	X7	Y7	Z7	X8	Y8	Z8	X9	Y9	Z9	X10	Y10	Z10	X11	Y11	Z11	X12	Y12	Z12	X13	Y13	Z13	X14	Y14	Z14	X15	Y15	Z15	X16	Y16	Z16	X17	Y17	Z17	X18	Y18	Z18	X19	Y19	Z19	X20	Y20	Z20	X21	Y21	Z21	X22	Y22	Z22	X23	Y23	Z23	X24	Y24	Z24	X25	Y25	Z25	X26	Y26	Z26	X27	Y27	Z27	X28	Y28	Z28	X29	Y29	Z29	X30	Y30	Z30	X31	Y31	Z31	X32	Y32	Z32	X33	Y33	Z33	

124	6.729000000000	535.643067354767	1003.591454551917	439.037684704521	729.718762831544	1421.719091171046	257.704333379135	814.491162091433	1359.432211569355	431.766949561495	715.001027974554	1443.924636721710	592.753898603053	713.515098050721	1489.799449464240	404.943590227589	750.683537802596	936.155336253105	575.572166664924	761.291742354246	957.829938630630	299.932194436843	813.008768841482	751.555646550306	553.639310482240	751.450923000826	632.772933853482	616.657029406046	842.422496774427	589.633579009100	542.322236402805	868.295646714116	508.481015106295	555.566441855320	763.404283541929	732.345840498600	327.498574658764	647.106677696584	636.849141102649	266.606342953690	707.340324823603	545.024024269412	331.815899139986	694.021035919317	478.355427903468	341.846302554305	662.334483506258	412.729463179595	336.164719790449	564.649914038121	303.044398204365	287.660347540798	608.640411161590	191.306560490754	364.678546794763	854.784119105698	422.536435565068	562.644573979760	802.535318703841	306.629059046443	620.329651205118	876.678285681269	224.112309667879	570.195509612444	787.727104028340	40.742947022646	538.259243089032	949.806131771080	113.118026774100	578.070375476116	871.735053505436	38.680973648377	612.523338678511	1074.211784537562	75.361472577821	605.213663789519	474.442085254758	38.091106340428	413.706106546186	548.989379753577	34.308250686323	333.575262089927	632.137636276224	95.170137121689	359.437670521631	760.359405445494	44.551984056201	334.066282548021	769.524018953445	1075.988921610796	128.726474669581	1012.875260848368	989.234310024274	153.867638461474	556.000907313523	1148.465389275536	716.818081208536	520.275389200483	892.615718655286	754.436370281687	
125	6.742000000000	537.058345283497	1002.173911018544	440.793104869436	729.343342853981	1420.859161698177	259.898287547231	814.358208069788	1359.067370181852	434.019235888246	714.251499234109	1443.051324305787	594.938959470155	712.872790154878	1488.896025117720	407.163962433035	752.463928637658	934.716945285296	577.017550208929	762.610592115051	957.257762436161	301.634870523245	815.299272884507	749.612300614952	554.238395452156	752.363405322558	631.047788223730	616.346446814283	843.243631168614	588.096495984512	541.954022597552	868.296395281553	506.669712527200	554.422263440393	763.744187299713	731.284833981429	328.377783758732	646.429231654040	636.566737687855	267.644121702826	705.980915881699	544.095799679042	332.627448424308	692.407839476161	477.166135463929	342.554193799056	659.668962127197	411.920141775381	336.866896891234	560.694819548194	303.431253937613	288.149404646598	603.427355617775	190.970649255478	364.787618657830	854.378362351623	420.107057757637	561.508440315495	801.241272039262	304.645955678601	619.194717107160	873.954513973481	221.509476226749	568.502639253806	781.945601816351	40.485408970242	537.211576975305	945.566110058722	110.145279562225	575.803220677892	866.073220471549	37.811261333652	611.313884535750	1069.301052380472	70.090409505069	602.731192191200	467.888668887620	38.285810450708	413.496274259327	542.503679162007	34.287270346765	333.509096222937	625.733874484683	95.113576224451	359.360646684783	753.924995742680	44.263999429608	334.048186015097	769.767776463266	1075.405789172850	130.420307067334	1014.232234205238	992.439497455914	155.730514266965	554.473459517572	1148.279230582783	718.693589990554	518.852881300444	892.321009094904	756.581659115258	
126	6.755000000000	538.455943165953	1000.937111600811	442.711066272737	729.057110404902	1420.178215080186	262.179740730599	814.308383785234	1358.835055479932	436.348241820359	713.590120527129	1442.269218249029	597.240164506158	712.341108114309	1488.159216365833	409.505092488619	754.295795914669	933.564559379938	578.541619456483	763.861836845967	956.716257796065	303.424760318741	817.974981308924	748.267940351967	554.726386855923	754.112720045377	629.912636036099	616.226421372181	844.721583101274	587.224782017268	541.545440280192	868.939465526666	505.297485817993	553.373899916406	764.244128563817	730.325400649112	329.394783736062	646.071076674855	636.257853133896	268.891556699080	705.080926990688	543.198990348594	333.637588088752	691.268395459691	475.933848008363	343.492519893049	657.433313654967	411.044907228345	337.760572492700	557.054754514609	303.895114551841	288.796701796066	598.399201136757	190.653203653137	364.985504600174	854.462589351078	418.005327891658	560.595997389263	800.304051837571	303.178688395637	618.595991759015	871.083427355352	219.159223057596	567.120697448280	775.440274041698	40.489844632166	536.605587589279	940.632773163160	107.374469893758	573.921168047656	859.730220429853	37.112911156494	610.504034471820	1063.721351100274	65.042838040743	600.561950264290	461.351898414541	38.609117263963	413.264040606331	536.056332051377	34.317195533344	333.449993359883	619.402029384046	95.088414021167	359.288367608919	747.542960393484	43.908804239982	334.029526901956	769.744954503684	1074.878298847730	132.314078927330	1015.030745091916	994.748487362476	157.616106243317	553.704185842459	1147.619657492585	720.533930439250	518.784411995018	891.422843929454	758.577936342227	
127	6.768000000000	539.806398677859	999.932373788366	444.773133379607	728.897343144253	1419.726185943507	264.535426826049	814.354496611062	1358.748475378520	438.735897367633	713.059348488271	1441.613121137730	599.639157721757	711.955837800790	1487.627560108596	411.951878048953	756.136991706222	932.756605378775	580.158349158924	765.010476638646	956.242763983386	305.291838640830	820.909208090080	747.575307485342	555.127572558187	756.609619244192	629.370666665938	616.323079994327	846.776488691841	587.007214952717	541.147924826771	870.125413516437	504.364420387091	552.484998526321	764.886231681458	729.514410957472	330.557321108921	646.030939907611	635.945503084653	270.345471390554	704.658745916690	542.372622361659	334.840349547395	690.616739802045	474.685607572077	344.635953921118	655.645670127254	410.131353084625	338.822192622014	553.737939426869	304.472057171715	289.601680972992	593.573004646419	190.391760860082	365.261733324227	854.975981302495	416.283146323448	559.934500535043	799.747206269362	302.235108543053	618.533774753912	868.182895695068	217.146984236751	566.060891016903	768.583327290965	40.676869571476	536.366934251769	935.238190922886	104.955388534933	572.480476259382	853.042144312035	36.594782015384	610.060409579777	1057.741406227795	60.568481856936	598.821132741907	454.847766419362	39.133682491400	413.017100655769	529.658671795949	34.436586889909	333.401867453963	613.171778891434	95.110951490332	359.214182008454	741.221096486014	43.472236719481	334.009259806536	769.427990435953	1074.450257174897	134.408054807172	1015.262995491120	996.161065563541	159.531224394667	553.749548894656	1146.526931132426	722.370233607582	520.131453444560	889.967414054112	760.403277156472	
